<svg width="112" height="112" viewBox="0 0 112 112" fill="none" xmlns="http://www.w3.org/2000/svg">
<path d="M98.0155 15.3234C86.556 4.85154 71.4059 -0.6391 55.8981 0.0593319C40.3903 0.757764 25.7951 7.58806 15.3233 19.0476C4.85153 30.5072 -0.639097 45.6574 0.0593315 61.1652C0.75776 76.6731 7.58803 91.2683 19.0476 101.74L20.4344 100.223C9.37734 90.1185 2.78698 76.0359 2.11308 61.0727C1.43918 46.1096 6.73695 31.4915 16.841 20.4345C26.9449 9.37738 41.0275 2.78699 55.9906 2.11309C70.9537 1.43919 85.5717 6.73698 96.6287 16.841L98.0155 15.3234Z" fill="#8028E5"/>
<path d="M101.296 16.8234C101.296 18.1659 100.208 19.2542 98.8653 19.2542C97.5229 19.2542 96.4345 18.1659 96.4345 16.8234C96.4345 15.4809 97.5229 14.3925 98.8653 14.3925C100.208 14.3925 101.296 15.4809 101.296 16.8234Z" fill="#8324E8"/>
<path d="M23.2947 101.916C23.2947 103.259 22.2064 104.347 20.8639 104.347C19.5214 104.347 18.4331 103.259 18.4331 101.916C18.4331 100.574 19.5214 99.4854 20.8639 99.4854C22.2064 99.4854 23.2947 100.574 23.2947 101.916Z" fill="#8324E7"/>
<path d="M56.8784 34.5094C56.5603 34.3408 56.3032 34.4075 56.0572 34.4056C53.562 34.4056 51.0632 34.4056 48.5681 34.4056C47.782 34.4056 47.4084 34.1166 47.4028 33.5368C47.3973 32.957 47.7728 32.6458 48.5477 32.6458C59.2262 32.6458 69.9046 32.6421 80.583 32.6347C80.8471 32.6167 81.1105 32.6786 81.3391 32.8124C81.5677 32.9461 81.7508 33.1456 81.8648 33.3849C84.5775 38.2802 87.2977 43.1737 90.0253 48.0653C90.521 48.9582 90.4729 49.1768 89.7959 49.9844C82.2569 58.9995 74.7173 68.0146 67.177 77.0296C64.7577 79.912 62.3403 82.7987 59.9247 85.6897C59.2274 86.5232 58.704 86.527 58.0104 85.6897C51.2716 77.6465 44.5316 69.5934 37.7904 61.5305C34.5696 57.6812 31.347 53.8331 28.1225 49.9863C27.4196 49.1471 27.3827 48.9526 27.9098 48.0097C30.6065 43.1564 33.3033 38.3031 36 33.4498C36.3144 32.8811 36.7158 32.6125 37.3816 32.6273C38.976 32.6606 40.5722 32.6273 42.1666 32.6403C42.9416 32.6403 43.3189 32.9441 43.3152 33.5276C43.3115 34.1111 42.936 34.3945 42.1536 34.4001C41.2288 34.4001 40.304 34.4001 39.3792 34.4001C38.5525 34.4001 38.5321 34.426 38.9113 35.141C40.6931 38.4643 42.481 41.7862 44.2752 45.107C44.5507 45.6164 44.8171 46.1295 45.0945 46.6371C45.4811 47.341 45.5181 47.354 46.0415 46.7686C48.0218 44.5433 49.9985 42.3111 51.9714 40.0721C53.3697 38.4976 54.768 36.9243 56.1663 35.3522C56.4104 35.0836 56.6324 34.8039 56.8784 34.5094ZM58.9259 82.7369C59.0942 82.3664 59.1904 82.1812 59.2607 81.996C63.1782 71.5348 67.0932 61.0736 71.0057 50.6124C71.2998 49.8307 71.2924 49.8251 70.4416 49.8251H47.4953C46.6075 49.8251 46.6112 49.8251 46.9182 50.6476C50.0959 59.1366 53.2729 67.6274 56.4493 76.1201L58.9259 82.7369ZM61.8113 80.3751L61.926 80.4473L87.5264 49.8232H86.744C82.49 49.8232 78.2358 49.8362 73.9817 49.8103C73.3862 49.8103 73.1439 50.027 72.946 50.5605C70.3947 57.4515 67.8238 64.3369 65.2331 71.2168C64.09 74.272 62.9494 77.3248 61.8113 80.3751ZM30.4974 49.9622C39.0056 60.1344 47.5046 70.2992 55.9943 80.4566C56.0338 80.2877 56.0162 80.1105 55.9443 79.9527C52.2784 70.1646 48.6168 60.3752 44.9595 50.5846C44.7468 50.0177 44.4823 49.8066 43.8682 49.8103C39.6419 49.8362 35.4137 49.8232 31.1855 49.827C30.9875 49.827 30.773 49.7621 30.4974 49.9622ZM70.5193 48.032C70.2807 47.7319 70.1327 47.5281 69.9644 47.341C66.4982 43.4349 63.0283 39.53 59.5548 35.6264C58.9611 34.9595 58.9389 34.9613 58.3507 35.6264C54.8771 39.5275 51.4085 43.433 47.9448 47.3429C47.7728 47.5281 47.5508 47.7133 47.4731 48.0357L70.5193 48.032ZM61.1048 34.4779C61.1048 34.7187 61.2897 34.8483 61.4192 34.991C64.9149 38.9329 68.4126 42.8748 71.912 46.8168C72.3189 47.2762 72.5205 47.2151 72.7943 46.7019C74.851 42.8452 76.9158 38.9947 78.9886 35.1503C79.3789 34.4223 79.3586 34.4093 78.5447 34.4093C72.933 34.4093 67.3225 34.4093 61.7133 34.4093C61.508 34.4056 61.2953 34.3408 61.1048 34.4779ZM37.0376 35.4837C36.9285 35.5745 36.8786 35.5949 36.8527 35.6319C34.6529 39.5948 32.4518 43.5559 30.2496 47.5151C29.9351 48.0709 30.2385 48.0616 30.6454 48.0616C34.8033 48.0616 38.9686 48.0505 43.1191 48.0616C43.7129 48.0616 43.7221 47.8912 43.4724 47.4373C42.3183 45.3274 41.1808 43.2101 40.0432 41.091C39.0519 39.246 38.0605 37.3917 37.0376 35.4837ZM80.9178 35.3985C78.6779 39.5646 76.5101 43.5936 74.3461 47.6244C74.0428 48.1913 74.5311 48.0542 74.7734 48.0542C78.9313 48.0542 83.0966 48.0542 87.2471 48.069C87.9296 48.069 87.8427 47.8467 87.5912 47.4003C86.5591 45.5683 85.5566 43.7214 84.5282 41.882C83.3519 39.7628 82.17 37.6473 80.9178 35.3985Z" fill="url(#paint0_linear_60_33)"/>
<path d="M43.8377 64.0291C43.6719 64.0274 43.5093 63.9866 43.365 63.9106C43.2206 63.8345 43.0991 63.7256 43.0118 63.5939C41.3149 61.5307 39.618 59.4711 37.9493 57.4009C37.5477 56.9058 37.6043 56.4336 38.0606 56.1235C38.5565 55.7852 39.0203 55.9015 39.3653 56.3191C41.1075 58.4263 42.8396 60.5406 44.5617 62.6619C44.6798 62.7879 44.752 62.9458 44.7679 63.1126C44.7838 63.2795 44.7426 63.4468 44.6503 63.5904C44.5742 63.7287 44.4571 63.8435 44.313 63.9213C44.1689 63.9991 44.0039 64.0365 43.8377 64.0291Z" fill="url(#paint1_linear_60_33)"/>
<path d="M37.6798 53.781C37.684 53.9295 37.6564 54.0772 37.5986 54.2154C37.5409 54.3535 37.4541 54.4792 37.3437 54.5848C37.2332 54.6904 37.1013 54.7738 36.9559 54.8299C36.8105 54.886 36.6546 54.9137 36.4975 54.9114C35.7654 54.9603 34.6219 53.847 34.6426 53.0861C34.6347 52.9323 34.6593 52.7786 34.7152 52.634C34.771 52.4894 34.857 52.3568 34.9679 52.2441C35.0788 52.1315 35.2125 52.041 35.361 51.978C35.5096 51.915 35.6699 51.8808 35.8327 51.8774C36.5648 51.8039 37.6539 52.9197 37.6798 53.781Z" fill="url(#paint2_linear_60_33)"/>
<defs>
<linearGradient id="paint0_linear_60_33" x1="56" y1="0" x2="56" y2="112" gradientUnits="userSpaceOnUse">
<stop stop-color="#684ECC"/>
<stop offset="1" stop-color="#8F0FF4"/>
</linearGradient>
<linearGradient id="paint1_linear_60_33" x1="56" y1="0" x2="56" y2="112" gradientUnits="userSpaceOnUse">
<stop stop-color="#684ECC"/>
<stop offset="1" stop-color="#8F0FF4"/>
</linearGradient>
<linearGradient id="paint2_linear_60_33" x1="56" y1="0" x2="56" y2="112" gradientUnits="userSpaceOnUse">
<stop stop-color="#684ECC"/>
<stop offset="1" stop-color="#8F0FF4"/>
</linearGradient>
</defs>
</svg>
