<svg width="112" height="112" viewBox="0 0 112 112" fill="none" xmlns="http://www.w3.org/2000/svg">
<path d="M98.0155 15.3234C86.556 4.85154 71.4059 -0.6391 55.8981 0.0593319C40.3903 0.757764 25.7951 7.58806 15.3233 19.0476C4.85153 30.5072 -0.639097 45.6574 0.0593315 61.1652C0.75776 76.6731 7.58803 91.2683 19.0476 101.74L20.4344 100.223C9.37734 90.1185 2.78698 76.0359 2.11308 61.0727C1.43918 46.1096 6.73695 31.4915 16.841 20.4345C26.9449 9.37738 41.0275 2.78699 55.9906 2.11309C70.9537 1.43919 85.5717 6.73698 96.6287 16.841L98.0155 15.3234Z" fill="#7C2EE0"/>
<path d="M101.31 17.3076C101.31 18.6501 100.222 19.7384 98.8792 19.7384C97.5367 19.7384 96.4484 18.6501 96.4484 17.3076C96.4484 15.9651 97.5367 14.8768 98.8792 14.8768C100.222 14.8768 101.31 15.9651 101.31 17.3076Z" fill="#7C2EE0"/>
<path d="M23.3086 102.4C23.3086 103.743 22.2203 104.831 20.8778 104.831C19.5352 104.831 18.4469 103.743 18.4469 102.4C18.4469 101.058 19.5352 99.9696 20.8778 99.9696C22.2203 99.9696 23.3086 101.058 23.3086 102.4Z" fill="#7C2EE0"/>
<path d="M58.9813 26.0541C68.7295 26.0541 78.4759 26.1014 88.2222 26.02C90.7 26.0011 92.4152 27.8454 92.3962 30.1513C92.333 44.0532 92.333 57.9558 92.3962 71.859C92.4076 74.2424 90.6014 76.0205 88.2772 75.9808C81.6633 75.8919 75.0456 75.9487 68.4279 75.9506C67.466 75.9506 67.4659 75.9506 67.4641 76.9285C67.4641 79.3876 67.4792 81.8466 67.4641 84.3057C67.4641 84.8732 67.6215 85.1153 68.223 85.0813C69.0027 85.0378 69.7882 85.0624 70.5699 85.0813C70.9086 85.0752 71.2452 85.1367 71.5597 85.2621C71.8743 85.3874 72.1606 85.5742 72.4019 85.8113C72.6431 86.0485 72.8344 86.3313 72.9645 86.6431C73.0947 86.955 73.161 87.2896 73.1597 87.6274C73.173 88.314 73.1711 88.9988 73.1597 89.6854C73.1464 90.6047 72.8751 90.8506 71.8752 90.8525H51.9538C50.0091 90.8525 48.0644 90.8525 46.1197 90.8525C45.1577 90.8525 44.8997 90.5915 44.8902 89.6324C44.8902 88.9704 44.8788 88.3083 44.8902 87.6463C44.8864 87.3086 44.9504 86.9735 45.0784 86.6608C45.2063 86.3481 45.3958 86.064 45.6355 85.8254C45.8752 85.5867 46.1604 85.3983 46.4742 85.2712C46.788 85.144 47.1242 85.0808 47.4629 85.0851C48.3167 85.0699 49.1705 85.0699 50.0243 85.0851C50.4037 85.0851 50.5934 84.947 50.5821 84.5478C50.5745 81.853 50.5745 79.1574 50.5821 76.4613C50.5821 76.0943 50.4151 75.9449 50.0622 75.9619C49.8725 75.9619 49.6828 75.9619 49.493 75.9619H29.5716C27.0501 75.9619 25.538 74.4638 25.538 71.9612C25.538 57.9886 25.538 44.0148 25.538 30.0397C25.538 27.5806 27.0558 26.0673 29.5223 26.0673L58.9813 26.0541ZM89.7836 65.9194C90.7095 65.9194 90.7095 65.9194 90.7095 64.9736C90.7095 53.4841 90.7095 41.9939 90.7095 30.5031C90.7095 28.5775 89.9791 27.8549 88.0287 27.8549H30.0459C28.0538 27.8549 27.3423 28.5642 27.3423 30.5485C27.3423 42.0154 27.3423 53.4816 27.3423 64.9472C27.3423 65.9156 27.3423 65.9156 28.3156 65.9175L89.7836 65.9194ZM29.5716 67.7202C29.0271 67.7202 28.4807 67.7373 27.9361 67.7202C27.5168 67.707 27.3347 67.8602 27.3404 68.2877C27.3575 69.5399 27.3138 70.796 27.3594 72.0463C27.4049 73.2966 28.1657 74.04 29.4293 74.1271C29.7367 74.1516 30.0459 74.1365 30.3552 74.1365H86.2756C86.9871 74.1365 87.6985 74.1479 88.41 74.1365C89.8937 74.1044 90.6867 73.3175 90.7038 71.8326C90.7209 70.7922 90.7038 69.7518 90.7038 68.7114C90.7038 67.7164 90.7038 67.7145 89.685 67.7145L29.5716 67.7202ZM59.0288 75.9506C57.0366 75.9506 55.0445 75.96 53.0523 75.9506C52.5685 75.9506 52.3788 76.0962 52.3826 76.5994C52.4015 79.201 52.4015 81.8019 52.3826 84.4022C52.3826 84.9375 52.5723 85.0889 53.0884 85.087C57.0474 85.0718 61.0076 85.0718 64.9691 85.087C65.4852 85.087 65.6806 84.9375 65.6749 84.4022C65.6547 81.8233 65.6547 79.2457 65.6749 76.6694C65.6749 76.1019 65.4852 75.9392 64.9312 75.9468C62.9637 75.9657 60.9943 75.9506 59.0269 75.9506H59.0288ZM61.4459 89.0442C64.5043 89.0442 67.5627 89.0328 70.6192 89.0442C71.1618 89.0442 71.3782 88.9061 71.3687 88.3273C71.3459 87.1204 71.1125 86.865 69.8375 86.865H48.2086C48.019 86.8556 47.829 86.8556 47.6394 86.865C46.8805 86.9426 46.6585 87.3833 46.6794 88.4615C46.6964 89.2409 47.2485 89.0177 47.6394 89.029C51.4169 89.0479 55.1868 89.0442 58.9548 89.0442H61.4459Z" fill="url(#paint0_linear_60_28)"/>
<path d="M86.0661 30.0758C87.8037 30.0758 88.3443 30.6206 88.3443 32.3786C88.3443 41.9878 88.3443 51.597 88.3443 61.2062C88.3443 62.9565 87.7999 63.5013 86.0584 63.5013H31.9101C30.1725 63.5013 29.5932 62.9449 29.5932 61.2274C29.5932 54.9733 29.5932 48.7198 29.5932 42.4669C29.5862 42.2498 29.5907 42.0325 29.6068 41.8159C29.6109 41.5947 29.6991 41.3833 29.8532 41.2248C30.0074 41.0662 30.2161 40.9722 30.437 40.962C30.6678 40.9208 30.9055 40.9726 31.0983 41.1062C31.2911 41.2397 31.4233 41.4441 31.466 41.6748C31.528 41.9811 31.5533 42.2937 31.5413 42.606C31.5413 48.618 31.5413 54.6301 31.5413 60.6421C31.5413 61.6602 31.5413 61.6621 32.5877 61.6621H85.6587C86.6492 61.6621 86.6492 61.6621 86.6492 60.673C86.6492 51.3999 86.6492 42.1269 86.6492 32.8538C86.6492 31.9111 86.6492 31.9111 85.6838 31.9111H32.3966C31.4313 31.9111 31.4313 31.9111 31.4313 32.8481C31.4313 33.785 31.4428 34.6833 31.4313 35.601C31.4197 36.2714 31.0567 36.6712 30.5123 36.6693C29.9678 36.6674 29.6126 36.2694 29.6048 35.5894C29.5894 34.4052 29.5933 33.2228 29.6048 32.0405C29.6048 30.7365 30.2651 30.0758 31.5606 30.0719C35.1324 30.0719 38.7042 30.0719 42.2741 30.0719L86.0661 30.0758Z" fill="url(#paint1_linear_60_28)"/>
<path d="M33.6449 43.2086C33.6449 41.9102 33.6449 40.6118 33.6449 39.3133C33.6449 38.5454 34.0083 38.1651 34.6756 38.1763C35.3429 38.1874 35.6595 38.5472 35.6617 39.2892C35.6702 41.9269 35.6702 44.5652 35.6617 47.2041C35.6617 47.9331 35.3153 48.2967 34.6713 48.3059C34.0274 48.3152 33.6491 47.935 33.6449 47.1652C33.6385 45.8482 33.6449 44.5293 33.6449 43.2086Z" fill="url(#paint2_linear_60_28)"/>
<path d="M56.9412 71.1173C56.9373 70.4457 57.147 69.7996 57.5241 69.3212C57.9013 68.8428 58.4151 68.5713 58.9524 68.5664C59.4897 68.5615 60.0065 68.8236 60.3893 69.295C60.772 69.7665 60.9892 70.4087 60.9931 71.0803C60.9971 71.752 60.7874 72.3981 60.4102 72.8765C60.033 73.3549 59.5193 73.6264 58.982 73.6313C58.4446 73.6362 57.9278 73.3741 57.5451 72.9026C57.1624 72.4312 56.9451 71.789 56.9412 71.1173Z" fill="url(#paint3_linear_60_28)"/>
<defs>
<linearGradient id="paint0_linear_60_28" x1="56" y1="0" x2="56" y2="112" gradientUnits="userSpaceOnUse">
<stop stop-color="#684ECC"/>
<stop offset="1" stop-color="#8F0FF4"/>
</linearGradient>
<linearGradient id="paint1_linear_60_28" x1="56" y1="0" x2="56" y2="112" gradientUnits="userSpaceOnUse">
<stop stop-color="#684ECC"/>
<stop offset="1" stop-color="#8F0FF4"/>
</linearGradient>
<linearGradient id="paint2_linear_60_28" x1="56" y1="0" x2="56" y2="112" gradientUnits="userSpaceOnUse">
<stop stop-color="#684ECC"/>
<stop offset="1" stop-color="#8F0FF4"/>
</linearGradient>
<linearGradient id="paint3_linear_60_28" x1="56" y1="0" x2="56" y2="112" gradientUnits="userSpaceOnUse">
<stop stop-color="#684ECC"/>
<stop offset="1" stop-color="#8F0FF4"/>
</linearGradient>
</defs>
</svg>
