<svg width="76" height="76" viewBox="0 0 76 76" fill="none" xmlns="http://www.w3.org/2000/svg">
<path d="M66.5105 10.398C58.7344 3.29212 48.454 -0.433675 37.9309 0.040261C27.4077 0.514197 17.5038 5.14904 10.398 12.9252C3.29211 20.7013 -0.433673 30.9818 0.0402607 41.505C0.514194 52.0282 5.14902 61.9321 12.9251 69.038L13.8662 68.0081C6.3632 61.1518 1.89116 51.5958 1.43387 41.4422C0.976587 31.2886 4.5715 21.3693 11.4278 13.8662C18.2841 6.36322 27.8401 1.89117 37.9936 1.43388C48.1472 0.976591 58.0665 4.57152 65.5695 11.4278L66.5105 10.398Z" fill="#8028E5"/>
<path d="M68.7367 11.4159C68.7367 12.3268 67.9982 13.0653 67.0872 13.0653C66.1762 13.0653 65.4377 12.3268 65.4377 11.4159C65.4377 10.5049 66.1762 9.76637 67.0872 9.76637C67.9982 9.76637 68.7367 10.5049 68.7367 11.4159Z" fill="#8324E8"/>
<path d="M15.8071 69.1574C15.8071 70.0684 15.0686 70.8069 14.1576 70.8069C13.2467 70.8069 12.5082 70.0684 12.5082 69.1574C12.5082 68.2464 13.2467 67.5079 14.1576 67.5079C15.0686 67.5079 15.8071 68.2464 15.8071 69.1574Z" fill="#8324E7"/>
<path d="M38.5961 23.4171C38.3802 23.3027 38.2057 23.3479 38.0388 23.3467C36.3457 23.3467 34.65 23.3467 32.9569 23.3467C32.4235 23.3467 32.17 23.1506 32.1662 22.7571C32.1624 22.3637 32.4172 22.1525 32.9431 22.1525C40.1892 22.1525 47.4352 22.15 54.6813 22.145C54.8605 22.1328 55.0393 22.1748 55.1944 22.2655C55.3495 22.3563 55.4738 22.4917 55.5511 22.6541C57.3919 25.9759 59.2377 29.2964 61.0886 32.6157C61.4249 33.2216 61.3923 33.3699 60.9329 33.918C55.8172 40.0354 50.701 46.1527 45.5844 52.2701C43.9427 54.226 42.3023 56.1848 40.6632 58.1466C40.19 58.7122 39.8348 58.7147 39.3642 58.1466C34.7915 52.6887 30.2179 47.2241 25.6435 41.7528C23.458 39.1408 21.2712 36.5296 19.0831 33.9193C18.6062 33.3498 18.5811 33.2178 18.9388 32.578C20.7687 29.2847 22.5986 25.9914 24.4286 22.6981C24.6419 22.3122 24.9143 22.1299 25.3661 22.14C26.448 22.1626 27.5312 22.14 28.613 22.1488C29.1389 22.1488 29.395 22.3549 29.3925 22.7509C29.3899 23.1468 29.1352 23.3391 28.6043 23.3429C27.9767 23.3429 27.3492 23.3429 26.7216 23.3429C26.1606 23.3429 26.1468 23.3605 26.4041 23.8457C27.6132 26.1007 28.8264 28.355 30.0439 30.6083C30.2309 30.954 30.4116 31.3022 30.5999 31.6466C30.8622 32.1243 30.8873 32.1331 31.2425 31.7358C32.5863 30.2258 33.9275 28.7111 35.2663 27.1918C36.2151 26.1234 37.164 25.0558 38.1128 23.989C38.2785 23.8067 38.4291 23.6169 38.5961 23.4171ZM39.9854 56.1429C40.0997 55.8915 40.1649 55.7658 40.2126 55.6401C42.8709 48.5414 45.5275 41.4428 48.1825 34.3441C48.382 33.8137 48.377 33.8099 47.7996 33.8099H32.229C31.6265 33.8099 31.629 33.8099 31.8374 34.368C33.9936 40.1284 36.1495 45.89 38.3049 51.6529L39.9854 56.1429ZM41.9434 54.5402L42.0212 54.5893L59.3929 33.8086H58.862C55.9753 33.8086 53.0886 33.8174 50.2019 33.7998C49.7977 33.7998 49.6333 33.9469 49.499 34.3089C47.7679 38.9849 46.0233 43.6572 44.2653 48.3257C43.4897 50.3989 42.7157 52.4704 41.9434 54.5402ZM20.6947 33.9029C26.4681 40.8055 32.2352 47.703 37.9961 54.5955C38.0229 54.481 38.011 54.3607 37.9622 54.2536C35.4746 47.6117 32.99 40.9689 30.5082 34.3253C30.3639 33.9406 30.1844 33.7973 29.7677 33.7998C26.8998 33.8174 24.0307 33.8086 21.1616 33.8111C21.0273 33.8111 20.8817 33.7672 20.6947 33.9029ZM47.8524 32.5931C47.6905 32.3895 47.59 32.2512 47.4758 32.1243C45.1238 29.4737 42.7692 26.8239 40.4122 24.175C40.0093 23.7225 39.9942 23.7238 39.5951 24.175C37.238 26.8223 34.8843 29.4724 32.534 32.1255C32.4172 32.2512 32.2666 32.3769 32.2139 32.5956L47.8524 32.5931ZM41.4639 23.3957C41.4639 23.5591 41.5895 23.6471 41.6773 23.7439C44.0494 26.4188 46.4228 29.0936 48.7975 31.7685C49.0736 32.0803 49.2104 32.0388 49.3961 31.6906C50.7918 29.0735 52.1929 26.4607 53.5994 23.852C53.8643 23.358 53.8505 23.3492 53.2982 23.3492C49.4903 23.3492 45.6831 23.3492 41.8769 23.3492C41.7375 23.3467 41.5932 23.3027 41.4639 23.3957ZM25.1327 24.0782C25.0586 24.1398 25.0247 24.1537 25.0072 24.1788C23.5144 26.8679 22.0209 29.5558 20.5265 32.2424C20.3131 32.6195 20.519 32.6132 20.7951 32.6132C23.6165 32.6132 26.443 32.6057 29.2594 32.6132C29.6623 32.6132 29.6686 32.4976 29.4991 32.1896C28.716 30.7579 27.9441 29.3212 27.1722 27.8832C26.4995 26.6312 25.8267 25.3729 25.1327 24.0782ZM54.9085 24.0204C53.3886 26.8474 51.9176 29.5814 50.4491 32.3166C50.2433 32.7012 50.5747 32.6082 50.7391 32.6082C53.5605 32.6082 56.387 32.6082 59.2034 32.6183C59.6665 32.6183 59.6076 32.4674 59.4369 32.1645C58.7365 30.9213 58.0563 29.6681 57.3584 28.4199C56.5602 26.9819 55.7582 25.5464 54.9085 24.0204Z" fill="url(#paint0_linear_60_296)"/>
<path d="M29.747 43.4483C29.6345 43.4472 29.5242 43.4195 29.4262 43.3679C29.3283 43.3163 29.2458 43.2423 29.1866 43.153C28.0351 41.753 26.8836 40.3554 25.7513 38.9506C25.4788 38.6146 25.5172 38.2942 25.8268 38.0838C26.1633 37.8543 26.4781 37.9332 26.7122 38.2165C27.8944 39.6464 29.0697 41.0811 30.2383 42.5206C30.3184 42.6061 30.3674 42.7132 30.3782 42.8264C30.389 42.9397 30.3611 43.0532 30.2984 43.1506C30.2467 43.2444 30.1673 43.3224 30.0695 43.3752C29.9717 43.428 29.8598 43.4534 29.747 43.4483Z" fill="url(#paint1_linear_60_296)"/>
<path d="M25.5684 36.4942C25.5713 36.595 25.5525 36.6953 25.5133 36.789C25.4742 36.8827 25.4153 36.968 25.3404 37.0397C25.2654 37.1113 25.1759 37.1679 25.0772 37.206C24.9785 37.2441 24.8727 37.2629 24.7662 37.2613C24.2694 37.2945 23.4935 36.5391 23.5075 36.0227C23.5021 35.9183 23.5188 35.814 23.5567 35.7159C23.5946 35.6178 23.653 35.5278 23.7282 35.4514C23.8035 35.3749 23.8942 35.3135 23.995 35.2708C24.0958 35.228 24.2046 35.2048 24.315 35.2025C24.8118 35.1527 25.5509 35.9098 25.5684 36.4942Z" fill="url(#paint2_linear_60_296)"/>
<defs>
<linearGradient id="paint0_linear_60_296" x1="38" y1="0" x2="38" y2="76" gradientUnits="userSpaceOnUse">
<stop stop-color="#684ECC"/>
<stop offset="1" stop-color="#8F0FF4"/>
</linearGradient>
<linearGradient id="paint1_linear_60_296" x1="38" y1="0" x2="38" y2="76" gradientUnits="userSpaceOnUse">
<stop stop-color="#684ECC"/>
<stop offset="1" stop-color="#8F0FF4"/>
</linearGradient>
<linearGradient id="paint2_linear_60_296" x1="38" y1="0" x2="38" y2="76" gradientUnits="userSpaceOnUse">
<stop stop-color="#684ECC"/>
<stop offset="1" stop-color="#8F0FF4"/>
</linearGradient>
</defs>
</svg>
