<svg width="112" height="112" viewBox="0 0 112 112" fill="none" xmlns="http://www.w3.org/2000/svg">
<path d="M98.0155 15.3234C86.556 4.85154 71.4059 -0.6391 55.8981 0.0593319C40.3903 0.757764 25.7951 7.58806 15.3233 19.0476C4.85153 30.5072 -0.639097 45.6574 0.0593315 61.1652C0.75776 76.6731 7.58803 91.2683 19.0476 101.74L20.4344 100.223C9.37734 90.1185 2.78698 76.0359 2.11308 61.0727C1.43918 46.1096 6.73695 31.4915 16.841 20.4345C26.9449 9.37738 41.0275 2.78699 55.9906 2.11309C70.9537 1.43919 85.5717 6.73698 96.6287 16.841L98.0155 15.3234Z" fill="#8323E8"/>
<path d="M101.296 17.572C101.296 18.9145 100.208 20.0028 98.8653 20.0028C97.5229 20.0028 96.4345 18.9145 96.4345 17.572C96.4345 16.2295 97.5229 15.1412 98.8653 15.1412C100.208 15.1412 101.296 16.2295 101.296 17.572Z" fill="#8323E8"/>
<path d="M23.2947 101.652C23.2947 102.994 22.2064 104.083 20.8639 104.083C19.5214 104.083 18.4331 102.994 18.4331 101.652C18.4331 100.309 19.5214 99.221 20.8639 99.221C22.2064 99.221 23.2947 100.309 23.2947 101.652Z" fill="#8323E8"/>
<path d="M31.6022 58.6926C31.6022 53.6229 31.6022 48.554 31.6022 43.486C31.6022 41.5689 32.4749 41.0188 34.1382 41.9356C40.4316 45.406 46.7031 48.9096 52.9938 52.3799C55.4146 53.7136 55.0413 53.6469 55.0578 51.2269C55.077 48.6234 55.0578 46.02 55.0578 43.4166C55.0578 41.4911 55.8675 41.016 57.5033 41.9245L84.8426 57.0867C85.0237 57.1867 85.2076 57.2812 85.3915 57.3951C86.5964 58.1675 86.6211 59.2595 85.3915 59.9763C83.097 61.3016 80.7695 62.5631 78.4558 63.8495L57.8134 75.3274C57.6021 75.4441 57.3907 75.5608 57.1739 75.6664C55.9663 76.247 55.1209 75.7636 55.0935 74.4077C55.0523 72.4989 55.0798 70.5873 55.0798 68.6785C55.0798 67.4643 55.0798 66.2473 55.0798 65.0331C55.0798 63.9495 55.0249 63.9217 54.0505 64.4469C50.886 66.1862 47.7379 67.9478 44.5788 69.6982C41.0904 71.6431 37.6074 73.5881 34.1053 75.483C32.4201 76.4027 31.6186 75.8775 31.6159 73.8992C31.6159 68.8313 31.6159 63.7634 31.6159 58.6954L31.6022 58.6926ZM57.5664 58.6204H57.5801C57.5801 62.7492 57.5801 66.8799 57.5801 71.0124C57.5801 72.4433 57.5801 72.4544 58.8152 71.7793C63.0877 69.4157 67.3565 67.0466 71.6217 64.6719C74.8988 62.852 78.1622 61.0127 81.4475 59.2094C82.1776 58.8093 82.2297 58.5565 81.4475 58.162C80.4704 57.6618 79.5262 57.095 78.5629 56.5588C71.9209 52.8671 65.2825 49.1782 58.6478 45.4921C57.646 44.9364 57.5719 44.992 57.5691 46.1228C57.5637 50.2831 57.5627 54.449 57.5664 58.6204ZM34.0998 58.5926H34.1135C34.1135 62.7585 34.1135 66.9262 34.1135 71.0958C34.1135 72.4489 34.1135 72.4628 35.3239 71.8015C40.9476 68.6952 46.489 65.411 52.2308 62.5464C54.6241 61.3544 55.4475 59.9124 55.088 57.4173C54.9919 56.7699 54.8355 56.3254 54.2646 56.0059C47.8788 52.4957 41.4966 48.9763 35.118 45.4476C34.1876 44.9364 34.1135 44.9975 34.1108 46.0923C34.0998 50.26 34.0961 54.4268 34.0998 58.5926Z" fill="url(#paint0_linear_60_38)"/>
<defs>
<linearGradient id="paint0_linear_60_38" x1="56" y1="0" x2="56" y2="112" gradientUnits="userSpaceOnUse">
<stop stop-color="#684ECC"/>
<stop offset="1" stop-color="#8F0FF4"/>
</linearGradient>
</defs>
</svg>
