<svg width="76" height="76" viewBox="0 0 76 76" fill="none" xmlns="http://www.w3.org/2000/svg">
<path d="M66.5108 10.398C58.7347 3.29212 48.4542 -0.433676 37.931 0.040261C27.4078 0.514198 17.5039 5.14905 10.398 12.9252C3.29212 20.7013 -0.433675 30.9818 0.0402608 41.505C0.514196 52.0282 5.14904 61.9321 12.9252 69.038L13.8662 68.0082C6.36322 61.1519 1.89117 51.5958 1.43388 41.4422C0.976592 31.2887 4.57152 21.3693 11.4278 13.8663C18.2842 6.36323 27.8402 1.89117 37.9938 1.43388C48.1474 0.976592 58.0667 4.57153 65.5698 11.4278L66.5108 10.398Z" fill="#7C2EE0"/>
<path d="M68.161 11.2202C68.161 12.1311 67.4225 12.8696 66.5115 12.8696C65.6005 12.8696 64.862 12.1311 64.862 11.2202C64.862 10.3092 65.6005 9.57066 66.5115 9.57066C67.4225 9.57066 68.161 10.3092 68.161 11.2202Z" fill="#8A19EE"/>
<path d="M15.7233 69.2454C15.7233 70.1564 14.9848 70.8949 14.0738 70.8949C13.1628 70.8949 12.4243 70.1564 12.4243 69.2454C12.4243 68.3344 13.1628 67.5959 14.0738 67.5959C14.9848 67.5959 15.7233 68.3344 15.7233 69.2454Z" fill="#8D13F2"/>
<path d="M56.5772 32.829C56.5772 36.7365 56.5903 40.644 56.5772 44.5514C56.5433 52.7422 50.2648 59.9074 42.0763 61.123C39.831 61.4647 37.5395 61.3642 35.3336 60.8273C33.1277 60.2903 31.0509 59.3275 29.2226 57.9942C27.3944 56.6609 25.8507 54.9833 24.6804 53.0581C23.5101 51.1328 22.7363 48.9978 22.4034 46.7758C22.28 45.9946 22.2171 45.2052 22.2153 44.4145C22.2205 41.2343 22.2205 38.0536 22.2153 34.8725C22.2102 34.7433 22.2137 34.6138 22.2257 34.485C22.2741 34.1285 22.487 33.9322 22.8515 33.9373C22.9256 33.9333 22.9998 33.9438 23.0698 33.9682C23.1399 33.9926 23.2043 34.0304 23.2596 34.0795C23.3148 34.1286 23.3597 34.188 23.3916 34.2542C23.4236 34.3205 23.442 34.3923 23.4459 34.4656C23.4614 34.6266 23.4657 34.7885 23.459 34.95C23.459 37.9688 23.4472 40.9876 23.459 44.0076C23.4733 46.7125 24.0102 49.3037 25.3467 51.6882C27.9595 56.3384 31.9087 59.1531 37.2505 59.8958C45.9524 61.1074 53.7175 55.0996 55.1115 46.675C55.2552 45.7657 55.3256 44.8466 55.3218 43.9262C55.3349 39.1469 55.3218 34.3675 55.3218 29.5881C55.3218 28.9564 55.3218 28.9565 54.6686 28.9565H48.7049C48.0517 28.9565 48.0517 28.9565 48.0517 29.5868C48.0517 34.4463 48.0021 39.307 48.0661 44.1665C48.0768 46.185 47.3742 48.1437 46.0798 49.7045C44.7853 51.2653 42.9803 52.3302 40.9763 52.7151C36.3073 53.6193 31.5481 50.3164 30.84 45.6429C30.7659 45.1157 30.7314 44.5838 30.7368 44.0515C30.7368 39.2403 30.7368 34.4286 30.7368 29.6165C30.7368 28.9564 30.7368 28.9565 30.0667 28.9565H24.1448C23.4642 28.9565 23.4642 28.9565 23.4629 29.6023C23.4629 29.7961 23.4629 29.9898 23.4629 30.1836C23.4629 30.8075 23.2617 31.0878 22.828 31.0749C22.3942 31.062 22.2218 30.8023 22.2192 30.2068C22.2192 29.4473 22.2192 28.6891 22.2192 27.9295C22.2192 25.3788 22.2192 22.8281 22.2192 20.2774C22.2192 19.5217 22.3498 19.3912 23.0892 19.3899H31.0687C31.8264 19.3899 31.9831 19.5462 31.9831 20.3045C31.9831 28.2167 31.9831 36.1281 31.9831 44.0386C31.9831 47.4371 34.025 50.2557 37.18 51.2464C41.6374 52.648 46.3325 49.5349 46.7349 44.926C46.7871 44.3293 46.8054 43.7351 46.8054 43.137V20.4259C46.8054 19.5049 46.9165 19.3925 47.8505 19.3925H55.6392C56.4231 19.3925 56.5785 19.5424 56.5785 20.3303C56.5794 24.4983 56.579 28.6645 56.5772 32.829ZM27.1364 20.6235C26.0587 20.6235 24.9809 20.6235 23.9031 20.6235C23.604 20.6235 23.4511 20.6972 23.4563 21.0291C23.4707 21.9979 23.4681 22.9667 23.4563 23.9355C23.4563 24.2223 23.5556 24.3411 23.8482 24.3398C26.0038 24.3321 28.1593 24.3321 30.3149 24.3398C30.6389 24.3398 30.7408 24.2107 30.7368 23.9084C30.7238 22.9564 30.7199 22.0031 30.7368 21.0511C30.7434 20.6933 30.5814 20.6171 30.2626 20.621C29.2267 20.6339 28.1815 20.6235 27.1364 20.6235ZM51.69 24.3321C52.7521 24.3321 53.8129 24.3243 54.875 24.3321C55.2042 24.3321 55.3453 24.2391 55.3388 23.8929C55.3218 22.9396 55.3244 21.9876 55.3388 21.0343C55.3388 20.7165 55.2186 20.6119 54.905 20.6132C52.766 20.6227 50.6271 20.6227 48.4881 20.6132C48.1798 20.6132 48.0465 20.7062 48.0504 21.0291C48.0648 21.9811 48.0661 22.9344 48.0504 23.8864C48.0504 24.2275 48.1732 24.3372 48.509 24.3334C49.5671 24.3256 50.6292 24.3347 51.69 24.3347V24.3321ZM27.1025 25.5644C26.0417 25.5644 24.9796 25.5721 23.9188 25.5644C23.5883 25.5644 23.4394 25.6587 23.4563 26.0049C23.4772 26.4557 23.4694 26.9091 23.4563 27.3612C23.4563 27.6324 23.57 27.7306 23.8378 27.7306C26.009 27.7254 28.1807 27.7254 30.3528 27.7306C30.6624 27.7306 30.7447 27.5924 30.7447 27.316C30.7329 26.8806 30.7251 26.4428 30.7447 26.0087C30.7617 25.6664 30.6232 25.5579 30.2875 25.5618C29.2254 25.576 28.1646 25.567 27.1025 25.567V25.5644ZM51.6495 27.728C52.7273 27.728 53.8051 27.719 54.8828 27.728C55.2225 27.728 55.3531 27.6169 55.3375 27.2785C55.3166 26.8432 55.3231 26.4066 55.3375 25.9713C55.3453 25.6923 55.2539 25.5579 54.9455 25.5592C52.7743 25.567 50.6027 25.567 48.4306 25.5592C48.1602 25.5592 48.0387 25.6626 48.0517 25.9312C48.0622 26.3678 48.0779 26.8057 48.0517 27.2385C48.0243 27.6389 48.198 27.7345 48.5743 27.7267C49.592 27.7138 50.6201 27.728 51.6495 27.728Z" fill="url(#paint0_linear_60_280)"/>
<defs>
<linearGradient id="paint0_linear_60_280" x1="38" y1="0" x2="38" y2="76" gradientUnits="userSpaceOnUse">
<stop stop-color="#684ECC"/>
<stop offset="1" stop-color="#8F0FF4"/>
</linearGradient>
</defs>
</svg>
