<svg width="76" height="76" viewBox="0 0 76 76" fill="none" xmlns="http://www.w3.org/2000/svg">
<path d="M66.5105 10.398C58.7344 3.29212 48.454 -0.433675 37.9309 0.040261C27.4077 0.514197 17.5038 5.14904 10.398 12.9252C3.29211 20.7013 -0.433673 30.9818 0.0402607 41.505C0.514194 52.0282 5.14902 61.9321 12.9251 69.038L13.8662 68.0081C6.3632 61.1518 1.89116 51.5958 1.43387 41.4422C0.976587 31.2886 4.5715 21.3693 11.4278 13.8662C18.2841 6.36322 27.8401 1.89117 37.9936 1.43388C48.1472 0.976591 58.0665 4.57152 65.5695 11.4278L66.5105 10.398Z" fill="#8323E8"/>
<path d="M68.7367 11.9239C68.7367 12.8348 67.9982 13.5733 67.0872 13.5733C66.1762 13.5733 65.4377 12.8348 65.4377 11.9239C65.4377 11.0129 66.1762 10.2744 67.0872 10.2744C67.9982 10.2744 68.7367 11.0129 68.7367 11.9239Z" fill="#8323E8"/>
<path d="M15.8071 68.978C15.8071 69.889 15.0686 70.6275 14.1576 70.6275C13.2467 70.6275 12.5082 69.889 12.5082 68.978C12.5082 68.067 13.2467 67.3285 14.1576 67.3285C15.0686 67.3285 15.8071 68.067 15.8071 68.978Z" fill="#8323E8"/>
<path d="M21.4443 39.8272C21.4443 36.3869 21.4443 32.9473 21.4443 29.5084C21.4443 28.2075 22.0366 27.8342 23.1652 28.4563C27.4358 30.8112 31.6914 33.1887 35.9601 35.5435C37.6028 36.4485 37.3495 36.4033 37.3606 34.7611C37.3737 32.9945 37.3606 31.2279 37.3606 29.4612C37.3606 28.1547 37.9101 27.8323 39.0201 28.4488L57.5718 38.7374C57.6947 38.8053 57.8195 38.8694 57.9442 38.9467C58.7619 39.4708 58.7786 40.2118 57.9442 40.6982C56.3873 41.5975 54.8079 42.4535 53.2379 43.3264L39.2305 51.115C39.0871 51.1942 38.9437 51.2734 38.7966 51.345C37.9771 51.7391 37.4035 51.411 37.3849 50.4909C37.3569 49.1957 37.3755 47.8985 37.3755 46.6032C37.3755 45.7793 37.3755 44.9535 37.3755 44.1296C37.3755 43.3943 37.3383 43.3755 36.6771 43.7318C34.5298 44.9121 32.3935 46.1074 30.2499 47.2952C27.8827 48.615 25.5193 49.9348 23.1429 51.2206C21.9993 51.8447 21.4555 51.4883 21.4536 50.1459C21.4536 46.707 21.4536 43.268 21.4536 39.829L21.4443 39.8272ZM39.0629 39.7781H39.0722C39.0722 42.5798 39.0722 45.3828 39.0722 48.187C39.0722 49.158 39.0722 49.1655 39.9103 48.7074C42.8095 47.1035 45.7062 45.4959 48.6004 43.8845C50.8242 42.6496 53.0386 41.4015 55.2679 40.1778C55.7633 39.9063 55.7987 39.7348 55.2679 39.467C54.6049 39.1277 53.9642 38.743 53.3105 38.3792C48.8034 35.8741 44.2988 33.3709 39.7967 30.8696C39.1169 30.4926 39.0666 30.5303 39.0648 31.2976C39.061 34.1207 39.0604 36.9475 39.0629 39.7781ZM23.1391 39.7593H23.1484C23.1484 42.5861 23.1484 45.4142 23.1484 48.2435C23.1484 49.1617 23.1484 49.1712 23.9698 48.7224C27.7859 46.6146 31.5461 44.386 35.4423 42.4422C37.0664 41.6334 37.6251 40.6548 37.3811 38.9618C37.316 38.5225 37.2098 38.2208 36.8224 38.004C32.4892 35.6221 28.1584 33.2339 23.8301 30.8395C23.1987 30.4926 23.1484 30.534 23.1466 31.2769C23.1391 34.105 23.1366 36.9324 23.1391 39.7593Z" fill="url(#paint0_linear_60_300)"/>
<defs>
<linearGradient id="paint0_linear_60_300" x1="38" y1="0" x2="38" y2="76" gradientUnits="userSpaceOnUse">
<stop stop-color="#684ECC"/>
<stop offset="1" stop-color="#8F0FF4"/>
</linearGradient>
</defs>
</svg>
