<svg width="69" height="71" viewBox="0 0 69 71" fill="none" xmlns="http://www.w3.org/2000/svg">
<path d="M15.44 69.0109C15.44 69.9219 14.7015 70.6604 13.7905 70.6604C12.8795 70.6604 12.141 69.9219 12.141 69.0109C12.141 68.1 12.8795 67.3615 13.7905 67.3615C14.7015 67.3615 15.44 68.1 15.44 69.0109Z" fill="#7C2EE0"/>
<path d="M66.5108 10.398C58.7347 3.29212 48.4542 -0.433676 37.931 0.040261C27.4078 0.514198 17.5039 5.14905 10.398 12.9252C3.29212 20.7013 -0.433675 30.9818 0.0402608 41.505C0.514197 52.0282 5.14904 61.9321 12.9252 69.038L13.8662 68.0082C6.36322 61.1519 1.89117 51.5958 1.43388 41.4422C0.976592 31.2887 4.57152 21.3693 11.4278 13.8663C18.2842 6.36323 27.8402 1.89117 37.9938 1.43388C48.1474 0.976592 58.0667 4.57153 65.5698 11.4278L66.5108 10.398Z" fill="#7C2EE0"/>
<path d="M68.5564 11.5353C68.5564 12.4463 67.8179 13.1848 66.9069 13.1848C65.9959 13.1848 65.2574 12.4463 65.2574 11.5353C65.2574 10.6243 65.9959 9.88583 66.9069 9.88583C67.8179 9.88583 68.5564 10.6243 68.5564 11.5353Z" fill="#7C2EE0"/>
<path d="M39.7295 19.2112C41.324 19.2112 42.9185 19.2112 44.5129 19.2112C45.734 19.2112 46.0464 19.5933 45.7892 20.8064C45.1873 23.653 44.5643 26.4958 43.949 29.3423L43.709 30.4619C43.5585 31.1726 43.6862 31.3139 44.4253 31.2012C46.0007 30.9605 47.5742 30.7083 49.1477 30.46C49.2658 30.4428 49.382 30.4084 49.5001 30.4026C49.9935 30.3759 50.5231 30.2536 50.8641 30.7695C51.205 31.2853 50.8793 31.6884 50.6602 32.1068C46.9138 39.1615 43.1629 46.2143 39.4076 53.2652L35.9787 59.7072C35.7291 60.1791 35.4072 60.5765 34.8128 60.4198C34.2185 60.2632 34.1308 59.755 34.1404 59.2239C34.2369 54.6923 34.3328 50.1613 34.428 45.631C34.428 45.4399 34.4185 45.2489 34.428 45.0578C34.4814 44.4369 34.249 44.2573 33.6279 44.4159C32.5916 44.6834 31.5325 44.8916 30.4905 45.1018C29.3075 45.3387 28.8503 44.8916 29.0674 43.7224C30.5152 35.9379 31.9655 28.1521 33.4184 20.3651C33.6089 19.3697 33.788 19.2188 34.7976 19.2188C36.4454 19.2073 38.0875 19.2112 39.7295 19.2112ZM36.0415 55.6532C36.2054 55.4259 36.253 55.3743 36.2854 55.3132C40.2325 47.926 44.1764 40.5389 48.1171 33.1518C48.22 32.9608 48.4543 32.7391 48.2638 32.5061C48.1095 32.315 47.8618 32.4507 47.6542 32.4831L43.0099 33.2129C41.825 33.404 41.3831 32.9474 41.6078 31.7858C41.6269 31.6922 41.6516 31.5948 41.6707 31.5069C42.3908 28.2438 43.0975 24.9769 43.8385 21.7196C43.9776 21.1082 43.8385 20.9153 43.208 20.921C40.7792 20.9478 38.3503 20.9554 35.9234 20.921C35.2529 20.9115 35.0167 21.1694 34.9043 21.7903C33.6584 28.6679 32.3973 35.5456 31.121 42.4233C31.0181 42.9792 31.1477 43.1187 31.6925 42.9964C32.7364 42.7538 33.788 42.5169 34.8338 42.3163C35.8796 42.1157 36.3216 42.4787 36.3082 43.5543C36.2873 45.1514 36.2263 46.7505 36.1844 48.3476C36.1444 49.876 36.2111 51.4044 36.0739 52.9327C35.9787 53.7676 36.0415 54.6254 36.0415 55.6532Z" fill="url(#paint0_linear_60_285)"/>
<defs>
<linearGradient id="paint0_linear_60_285" x1="38" y1="0" x2="38" y2="76" gradientUnits="userSpaceOnUse">
<stop stop-color="#684ECC"/>
<stop offset="1" stop-color="#8F0FF4"/>
</linearGradient>
</defs>
</svg>
