<svg width="76" height="76" viewBox="0 0 76 76" fill="none" xmlns="http://www.w3.org/2000/svg">
<path d="M66.5105 10.398C58.7344 3.29212 48.454 -0.433675 37.9309 0.040261C27.4077 0.514197 17.5038 5.14904 10.398 12.9252C3.29211 20.7013 -0.433673 30.9818 0.0402607 41.505C0.514194 52.0282 5.14902 61.9321 12.9251 69.038L13.8662 68.0081C6.3632 61.1518 1.89116 51.5958 1.43387 41.4422C0.976587 31.2886 4.5715 21.3693 11.4278 13.8662C18.2841 6.36322 27.8401 1.89117 37.9936 1.43388C48.1472 0.976591 58.0665 4.57152 65.5695 11.4278L66.5105 10.398Z" fill="#7C2EE0"/>
<path d="M68.7461 11.7445C68.7461 12.6554 68.0076 13.3939 67.0966 13.3939C66.1856 13.3939 65.4471 12.6554 65.4471 11.7445C65.4471 10.8335 66.1856 10.095 67.0966 10.095C68.0076 10.095 68.7461 10.8335 68.7461 11.7445Z" fill="#7C2EE0"/>
<path d="M15.8165 69.486C15.8165 70.397 15.078 71.1355 14.167 71.1355C13.2561 71.1355 12.5176 70.397 12.5176 69.486C12.5176 68.575 13.2561 67.8365 14.167 67.8365C15.078 67.8365 15.8165 68.575 15.8165 69.486Z" fill="#7C2EE0"/>
<path d="M40.023 17.6796C46.6379 17.6796 53.2515 17.7116 59.8651 17.6565C61.5465 17.6436 62.7103 18.8951 62.6974 20.4598C62.6545 29.8933 62.6545 39.3272 62.6974 48.7615C62.7051 50.3788 61.4795 51.5854 59.9024 51.5584C55.4144 51.4981 50.9238 51.5366 46.4332 51.5379C45.7805 51.5379 45.7805 51.5379 45.7792 52.2015C45.7792 53.8701 45.7895 55.5388 45.7792 57.2075C45.7792 57.5925 45.886 57.7568 46.2942 57.7337C46.8233 57.7042 47.3563 57.7209 47.8867 57.7337C48.1166 57.7296 48.3449 57.7713 48.5584 57.8564C48.7719 57.9415 48.9661 58.0682 49.1298 58.2291C49.2935 58.39 49.4233 58.5819 49.5116 58.7935C49.5999 59.0052 49.645 59.2322 49.6441 59.4614C49.6531 59.9274 49.6518 60.392 49.6441 60.858C49.6351 61.4818 49.451 61.6486 48.7725 61.6499H35.2544C33.9347 61.6499 32.6151 61.6499 31.2955 61.6499C30.6427 61.6499 30.4677 61.4728 30.4612 60.822C30.4612 60.3728 30.4535 59.9235 30.4612 59.4743C30.4586 59.2451 30.502 59.0177 30.5889 58.8055C30.6757 58.5933 30.8043 58.4006 30.9669 58.2387C31.1296 58.0767 31.3231 57.9489 31.5361 57.8626C31.749 57.7763 31.9771 57.7334 32.207 57.7363C32.7863 57.726 33.3657 57.726 33.945 57.7363C34.2025 57.7363 34.3313 57.6426 34.3235 57.3717C34.3184 55.5431 34.3184 53.714 34.3235 51.8844C34.3235 51.6354 34.2102 51.534 33.9708 51.5456C33.842 51.5456 33.7133 51.5456 33.5846 51.5456H20.0664C18.3554 51.5456 17.3293 50.529 17.3293 48.8308C17.3293 39.3494 17.3293 29.8672 17.3293 20.3841C17.3293 18.7154 18.3593 17.6885 20.033 17.6885L40.023 17.6796ZM60.9246 44.731C61.5529 44.731 61.5529 44.731 61.5529 44.0893C61.5529 36.2928 61.5529 28.4959 61.5529 20.6985C61.5529 19.3919 61.0572 18.9015 59.7337 18.9015H20.3883C19.0365 18.9015 18.5537 19.3829 18.5537 20.7293C18.5537 28.5104 18.5537 36.2911 18.5537 44.0713C18.5537 44.7285 18.5537 44.7285 19.2142 44.7298L60.9246 44.731ZM20.0664 45.953C19.6969 45.953 19.3262 45.9646 18.9567 45.953C18.6721 45.944 18.5485 46.048 18.5524 46.3381C18.564 47.1878 18.5344 48.0401 18.5653 48.8886C18.5962 49.737 19.1124 50.2415 19.9699 50.3005C20.1784 50.3172 20.3883 50.3069 20.5981 50.3069H58.5441C59.0269 50.3069 59.5097 50.3146 59.9925 50.3069C60.9993 50.2851 61.5374 49.7511 61.549 48.7435C61.5606 48.0375 61.549 47.3316 61.549 46.6256C61.549 45.9504 61.549 45.9492 60.8577 45.9492L20.0664 45.953ZM40.0552 51.5379C38.7034 51.5379 37.3516 51.5443 35.9998 51.5379C35.6715 51.5379 35.5427 51.6367 35.5453 51.9781C35.5582 53.7435 35.5582 55.5084 35.5453 57.2729C35.5453 57.6362 35.6741 57.7389 36.0243 57.7376C38.7107 57.7273 41.398 57.7273 44.0862 57.7376C44.4364 57.7376 44.569 57.6362 44.5651 57.2729C44.5514 55.523 44.5514 53.7739 44.5651 52.0256C44.5651 51.6406 44.4364 51.5302 44.0604 51.5353C42.7254 51.5481 41.389 51.5379 40.0539 51.5379H40.0552ZM41.6954 60.4228C43.7708 60.4228 45.8461 60.4151 47.9202 60.4228C48.2884 60.4228 48.4352 60.3291 48.4287 59.9364C48.4133 59.1174 48.2549 58.9441 47.3898 58.9441H32.713C32.5843 58.9377 32.4554 58.9377 32.3267 58.9441C31.8117 58.9968 31.6611 59.2958 31.6753 60.0275C31.6869 60.5563 32.0615 60.4049 32.3267 60.4126C34.89 60.4254 37.4482 60.4228 40.005 60.4228H41.6954Z" fill="url(#paint0_linear_60_291)"/>
<path d="M58.402 20.4086C59.5811 20.4086 59.9479 20.7783 59.9479 21.9712C59.9479 28.4917 59.9479 35.0122 59.9479 41.5328C59.9479 42.7205 59.5785 43.0901 58.3968 43.0901H21.6533C20.4742 43.0901 20.0811 42.7126 20.0811 41.5472C20.0811 37.3033 20.0811 33.0598 20.0811 28.8168C20.0763 28.6695 20.0794 28.522 20.0903 28.375C20.0931 28.2249 20.1529 28.0815 20.2575 27.9739C20.3622 27.8663 20.5038 27.8026 20.6537 27.7956C20.8103 27.7677 20.9716 27.8029 21.1024 27.8935C21.2332 27.9841 21.3229 28.1228 21.3519 28.2794C21.394 28.4872 21.4112 28.6993 21.403 28.9112C21.403 32.9908 21.403 37.0704 21.403 41.15C21.403 41.8408 21.403 41.8421 22.1131 41.8421H58.1256C58.7977 41.8421 58.7977 41.8421 58.7977 41.171C58.7977 34.8785 58.7977 28.5861 58.7977 22.2937C58.7977 21.654 58.7977 21.654 58.1426 21.654H21.9834C21.3284 21.654 21.3284 21.654 21.3284 22.2897C21.3284 22.9255 21.3362 23.5351 21.3284 24.1578C21.3205 24.6127 21.0742 24.8841 20.7047 24.8827C20.3353 24.8814 20.0942 24.6114 20.089 24.1499C20.0785 23.3464 20.0811 22.5441 20.089 21.7418C20.089 20.8569 20.5371 20.4086 21.4161 20.406C23.8399 20.406 26.2636 20.406 28.686 20.406L58.402 20.4086Z" fill="url(#paint1_linear_60_291)"/>
<path d="M22.8304 29.3201C22.8304 28.4391 22.8304 27.558 22.8304 26.6769C22.8304 26.1558 23.077 25.8978 23.5299 25.9053C23.9827 25.9129 24.1975 26.1571 24.199 26.6605C24.2047 28.4504 24.2047 30.2407 24.199 32.0314C24.199 32.526 23.9639 32.7727 23.527 32.779C23.09 32.7853 22.8333 32.5273 22.8304 32.0049C22.8261 31.1113 22.8304 30.2163 22.8304 29.3201Z" fill="url(#paint2_linear_60_291)"/>
<path d="M38.6387 48.2582C38.636 47.8024 38.7783 47.364 39.0342 47.0394C39.2902 46.7148 39.6388 46.5305 40.0034 46.5272C40.368 46.5239 40.7187 46.7017 40.9784 47.0216C41.2381 47.3415 41.3855 47.7773 41.3882 48.2331C41.3909 48.6888 41.2486 49.1273 40.9926 49.4519C40.7367 49.7765 40.3881 49.9608 40.0235 49.9641C39.6589 49.9674 39.3081 49.7896 39.0484 49.4696C38.7887 49.1497 38.6413 48.714 38.6387 48.2582Z" fill="url(#paint3_linear_60_291)"/>
<defs>
<linearGradient id="paint0_linear_60_291" x1="38" y1="0" x2="38" y2="76" gradientUnits="userSpaceOnUse">
<stop stop-color="#684ECC"/>
<stop offset="1" stop-color="#8F0FF4"/>
</linearGradient>
<linearGradient id="paint1_linear_60_291" x1="38" y1="0" x2="38" y2="76" gradientUnits="userSpaceOnUse">
<stop stop-color="#684ECC"/>
<stop offset="1" stop-color="#8F0FF4"/>
</linearGradient>
<linearGradient id="paint2_linear_60_291" x1="38" y1="0" x2="38" y2="76" gradientUnits="userSpaceOnUse">
<stop stop-color="#684ECC"/>
<stop offset="1" stop-color="#8F0FF4"/>
</linearGradient>
<linearGradient id="paint3_linear_60_291" x1="38" y1="0" x2="38" y2="76" gradientUnits="userSpaceOnUse">
<stop stop-color="#684ECC"/>
<stop offset="1" stop-color="#8F0FF4"/>
</linearGradient>
</defs>
</svg>
