<svg width="112" height="112" viewBox="0 0 112 112" fill="none" xmlns="http://www.w3.org/2000/svg">
<path d="M98.016 15.3234C86.5564 4.85155 71.4062 -0.639101 55.8984 0.059332C40.3905 0.757765 25.7952 7.58807 15.3234 19.0477C4.85155 30.5072 -0.6391 45.6574 0.0593318 61.1653C0.757763 76.6731 7.58806 91.2684 19.0476 101.74L20.4345 100.223C9.37738 90.1186 2.78699 76.036 2.11309 61.0728C1.43919 46.1096 6.73698 31.4916 16.841 20.4345C26.9451 9.37739 41.0277 2.78699 55.9908 2.11309C70.954 1.43919 85.572 6.73699 96.6291 16.841L98.016 15.3234Z" fill="#7C2EE0"/>
<path d="M100.448 16.535C100.448 17.8775 99.3595 18.9658 98.017 18.9658C96.6745 18.9658 95.5862 17.8775 95.5862 16.535C95.5862 15.1925 96.6745 14.1041 98.017 14.1041C99.3595 14.1041 100.448 15.1925 100.448 16.535Z" fill="#8A19EE"/>
<path d="M23.1712 102.046C23.1712 103.388 22.0828 104.477 20.7403 104.477C19.3978 104.477 18.3095 103.388 18.3095 102.046C18.3095 100.703 19.3978 99.615 20.7403 99.615C22.0828 99.615 23.1712 100.703 23.1712 102.046Z" fill="#8D13F2"/>
<path d="M83.377 48.3796C83.377 54.138 83.3962 59.8964 83.377 65.6547C83.3269 77.7254 74.0744 88.2846 62.0072 90.0759C58.6983 90.5796 55.3214 90.4315 52.0706 89.6402C48.8198 88.8489 45.7592 87.43 43.065 85.4651C40.3707 83.5002 38.0958 81.0281 36.3712 78.1908C34.6465 75.3536 33.5061 72.2073 33.0155 68.9327C32.8337 67.7815 32.7411 66.6182 32.7383 65.4529C32.746 60.7663 32.746 56.079 32.7383 51.3911C32.7309 51.2006 32.736 51.0099 32.7537 50.82C32.8249 50.2946 33.1387 50.0053 33.6759 50.0129C33.7851 50.007 33.8945 50.0225 33.9977 50.0584C34.1009 50.0944 34.1959 50.1501 34.2773 50.2225C34.3586 50.2948 34.4248 50.3823 34.4719 50.4799C34.519 50.5776 34.5462 50.6834 34.5518 50.7915C34.5746 51.0287 34.5811 51.2672 34.5711 51.5053C34.5711 55.954 34.5538 60.4027 34.5711 64.8533C34.5923 68.8394 35.3835 72.658 37.353 76.1721C41.2034 83.025 47.0233 87.1729 54.8955 88.2675C67.7193 90.0531 79.1627 81.1995 81.2169 68.7842C81.4288 67.4442 81.5324 66.0897 81.5269 64.7334C81.5461 57.6901 81.5269 50.6468 81.5269 43.6035C81.5269 42.6727 81.5269 42.6727 80.5642 42.6727H71.7757C70.8131 42.6727 70.8131 42.6727 70.8131 43.6016C70.8131 50.7629 70.7399 57.9261 70.8343 65.0875C70.85 68.062 69.8147 70.9487 67.907 73.2488C65.9994 75.5489 63.3393 77.1181 60.3862 77.6854C53.5055 79.018 46.492 74.1505 45.4485 67.2633C45.3393 66.4863 45.2884 65.7024 45.2964 64.918C45.2964 57.8278 45.2964 50.7369 45.2964 43.6454C45.2964 42.6727 45.2964 42.6727 44.3088 42.6727H35.5818C34.5788 42.6727 34.5788 42.6727 34.5769 43.6245C34.5769 43.91 34.5769 44.1955 34.5769 44.4811C34.5769 45.4005 34.2804 45.8136 33.6412 45.7946C33.002 45.7755 32.7479 45.3929 32.7441 44.5153C32.7441 43.396 32.7441 42.2786 32.7441 41.1593C32.7441 37.4003 32.7441 33.6414 32.7441 29.8824C32.7441 28.7688 32.9366 28.5766 34.0262 28.5747H45.7854C46.902 28.5747 47.133 28.805 47.133 29.9224C47.133 41.5825 47.133 53.2414 47.133 64.899C47.133 69.9074 50.1422 74.061 54.7915 75.5211C61.3603 77.5864 68.2795 72.9988 68.8725 66.2068C68.9495 65.3273 68.9764 64.4517 68.9764 63.5703V30.1013C68.9764 28.7441 69.1401 28.5785 70.5166 28.5785H81.9947C83.1498 28.5785 83.3789 28.7993 83.3789 29.9605C83.3802 36.1027 83.3795 42.2424 83.377 48.3796ZM39.9905 30.3926C38.4022 30.3926 36.814 30.3926 35.2257 30.3926C34.7848 30.3926 34.5595 30.5011 34.5672 30.9903C34.5884 32.418 34.5846 33.8457 34.5672 35.2734C34.5672 35.696 34.7135 35.8711 35.1448 35.8692C38.3214 35.8578 41.498 35.8578 44.6746 35.8692C45.152 35.8692 45.3022 35.6789 45.2964 35.2334C45.2772 33.8305 45.2714 32.4256 45.2964 31.0227C45.306 30.4954 45.0673 30.3831 44.5976 30.3888C43.0709 30.4078 41.5307 30.3926 39.9905 30.3926ZM76.1748 35.8578C77.74 35.8578 79.3032 35.8464 80.8684 35.8578C81.3536 35.8578 81.5615 35.7207 81.5519 35.2106C81.5269 33.8057 81.5307 32.4028 81.5519 30.9979C81.5519 30.5296 81.3747 30.3755 80.9127 30.3774C77.7605 30.3913 74.6083 30.3913 71.4561 30.3774C71.0017 30.3774 70.8054 30.5144 70.8111 30.9903C70.8323 32.3933 70.8343 33.7981 70.8111 35.2011C70.8111 35.7036 70.9921 35.8654 71.4869 35.8597C73.0463 35.8483 74.6115 35.8616 76.1748 35.8616V35.8578ZM39.9405 37.6738C38.3772 37.6738 36.812 37.6852 35.2488 37.6738C34.7617 37.6738 34.5422 37.8128 34.5672 38.323C34.598 38.9873 34.5865 39.6555 34.5672 40.3217C34.5672 40.7215 34.7347 40.8661 35.1294 40.8661C38.3291 40.8585 41.5294 40.8585 44.7304 40.8661C45.1867 40.8661 45.308 40.6625 45.308 40.2551C45.2906 39.6136 45.2791 38.9683 45.308 38.3287C45.333 37.8242 45.1289 37.6643 44.6341 37.67C43.0689 37.691 41.5057 37.6776 39.9405 37.6776V37.6738ZM76.1151 40.8623C77.7034 40.8623 79.2917 40.849 80.88 40.8623C81.3805 40.8623 81.5731 40.6986 81.55 40.1999C81.5191 39.5584 81.5288 38.915 81.55 38.2735C81.5615 37.8623 81.4267 37.6643 80.9724 37.6662C77.7727 37.6776 74.5724 37.6776 71.3714 37.6662C70.9729 37.6662 70.7938 37.8185 70.8131 38.2144C70.8285 38.8579 70.8516 39.5032 70.8131 40.1409C70.7726 40.731 71.0287 40.8719 71.5832 40.8604C73.0829 40.8414 74.598 40.8623 76.1151 40.8623Z" fill="url(#paint0_linear_60_18)"/>
<defs>
<linearGradient id="paint0_linear_60_18" x1="56" y1="0" x2="56" y2="112" gradientUnits="userSpaceOnUse">
<stop stop-color="#684ECC"/>
<stop offset="1" stop-color="#8F0FF4"/>
</linearGradient>
</defs>
</svg>
