<svg width="102" height="105" viewBox="0 0 102 105" fill="none" xmlns="http://www.w3.org/2000/svg">
<path d="M22.7537 101.7C22.7537 103.043 21.6654 104.131 20.3229 104.131C18.9804 104.131 17.892 103.043 17.892 101.7C17.892 100.358 18.9804 99.2695 20.3229 99.2695C21.6654 99.2695 22.7537 100.358 22.7537 101.7Z" fill="#7C2EE0"/>
<path d="M98.016 15.3234C86.5564 4.85155 71.4062 -0.639101 55.8984 0.059332C40.3905 0.757765 25.7952 7.58807 15.3234 19.0477C4.85155 30.5072 -0.6391 45.6574 0.0593318 61.1653C0.757763 76.6731 7.58806 91.2684 19.0476 101.74L20.4345 100.223C9.37738 90.1186 2.78699 76.036 2.11309 61.0728C1.43919 46.1096 6.73698 31.4916 16.841 20.4345C26.9451 9.37739 41.0277 2.78699 55.9908 2.11309C70.954 1.43919 85.572 6.73699 96.6291 16.841L98.016 15.3234Z" fill="#7C2EE0"/>
<path d="M101.031 16.9994C101.031 18.3419 99.9422 19.4303 98.5997 19.4303C97.2572 19.4303 96.1688 18.3419 96.1688 16.9994C96.1688 15.6569 97.2572 14.5686 98.5997 14.5686C99.9422 14.5686 101.031 15.6569 101.031 16.9994Z" fill="#7C2EE0"/>
<path d="M58.5488 28.3112C60.8985 28.3112 63.2483 28.3112 65.598 28.3112C67.3975 28.3112 67.8579 28.8743 67.4789 30.6621C66.5918 34.857 65.6738 39.0464 64.767 43.2413L64.4133 44.8912C64.1915 45.9385 64.3796 46.1469 65.4688 45.9808C67.7905 45.626 70.1093 45.2544 72.4282 44.8884C72.6022 44.863 72.7735 44.8123 72.9475 44.8039C73.6746 44.7645 74.4551 44.5843 74.9576 45.3445C75.4601 46.1046 74.98 46.6987 74.6572 47.3153C69.1361 57.7117 63.6085 68.1052 58.0744 78.496L53.0212 87.9896C52.6534 88.685 52.179 89.2706 51.3031 89.0398C50.4272 88.8089 50.2981 88.06 50.3121 87.2773C50.4544 80.5991 50.5957 73.9219 50.736 67.2456C50.736 66.9641 50.722 66.6825 50.736 66.401C50.8146 65.486 50.4721 65.2213 49.557 65.455C48.0298 65.8492 46.4689 66.1561 44.9333 66.4657C43.19 66.8149 42.5162 66.156 42.8362 64.433C44.9698 52.9611 47.1071 41.4873 49.2482 30.0117C49.5289 28.5449 49.7928 28.3224 51.2807 28.3224C53.709 28.3055 56.1289 28.3112 58.5488 28.3112ZM53.1138 82.0153C53.3553 81.6803 53.4254 81.6042 53.4732 81.5141C59.2899 70.6279 65.102 59.7416 70.9094 48.8553C71.061 48.5737 71.4063 48.2472 71.1256 47.9037C70.8982 47.6221 70.5332 47.822 70.2272 47.8699L63.383 48.9454C61.6369 49.2269 60.9856 48.554 61.3168 46.8423C61.3449 46.7043 61.3814 46.5607 61.4095 46.4312C62.4706 41.6225 63.5121 36.8081 64.6042 32.0078C64.8091 31.1069 64.6042 30.8225 63.675 30.831C60.0956 30.8704 56.5163 30.8817 52.9398 30.831C51.9516 30.8169 51.6035 31.197 51.4379 32.112C49.6019 42.2475 47.7434 52.383 45.8625 62.5185C45.7109 63.3378 45.9018 63.5433 46.7047 63.3631C48.2431 63.0056 49.7928 62.6565 51.334 62.3609C52.8752 62.0652 53.5265 62.6002 53.5069 64.1852C53.476 66.5389 53.3861 68.8954 53.3244 71.2491C53.2654 73.5015 53.3637 75.7538 53.1616 78.0061C53.0212 79.2365 53.1138 80.5006 53.1138 82.0153Z" fill="url(#paint0_linear_60_23)"/>
<defs>
<linearGradient id="paint0_linear_60_23" x1="56" y1="0" x2="56" y2="112" gradientUnits="userSpaceOnUse">
<stop stop-color="#684ECC"/>
<stop offset="1" stop-color="#8F0FF4"/>
</linearGradient>
</defs>
</svg>
